<svg width="0" height="0" class="hidden">
  <symbol xmlns="http://www.w3.org/2000/svg" viewBox="0 0 512 512" id="circle-dollar-to-slot-solid">
    <path d="M326.7 403.7c-22.1 8-45.9 12.3-70.7 12.3s-48.7-4.4-70.7-12.3c-.3-.1-.5-.2-.8-.3c-30-11-56.8-28.7-78.6-51.4C70 314.6 48 263.9 48 208C48 93.1 141.1 0 256 0S464 93.1 464 208c0 55.9-22 106.6-57.9 144c-1 1-2 2.1-3 3.1c-21.4 21.4-47.4 38.1-76.3 48.6zM256 91.9c-11.1 0-20.1 9-20.1 20.1v6c-5.6 1.2-10.9 2.9-15.9 5.1c-15 6.8-27.9 19.4-31.1 37.7c-1.8 10.2-.8 20 3.4 29c4.2 8.8 10.7 15 17.3 19.5c11.6 7.9 26.9 12.5 38.6 16l2.2 .7c13.9 4.2 23.4 7.4 29.3 11.7c2.5 1.8 3.4 3.2 3.7 4c.3 .8 .9 2.6 .2 6.7c-.6 3.5-2.5 6.4-8 8.8c-6.1 2.6-16 3.9-28.8 1.9c-6-1-16.7-4.6-26.2-7.9l0 0 0 0 0 0c-2.2-.7-4.3-1.5-6.4-2.1c-10.5-3.5-21.8 2.2-25.3 12.7s2.2 21.8 12.7 25.3c1.2 .4 2.7 .9 4.4 1.5c7.9 2.7 20.3 6.9 29.8 9.1V304c0 11.1 9 20.1 20.1 20.1s20.1-9 20.1-20.1v-5.5c5.3-1 10.5-2.5 15.4-4.6c15.7-6.7 28.4-19.7 31.6-38.7c1.8-10.4 1-20.3-3-29.4c-3.9-9-10.2-15.6-16.9-20.5c-12.2-8.8-28.3-13.7-40.4-17.4l-.8-.2c-14.2-4.3-23.8-7.3-29.9-11.4c-2.6-1.8-3.4-3-3.6-3.5c-.2-.3-.7-1.6-.1-5c.3-1.9 1.9-5.2 8.2-8.1c6.4-2.9 16.4-4.5 28.6-2.6c4.3 .7 17.9 3.3 21.7 4.3c10.7 2.8 21.6-3.5 24.5-14.2s-3.5-21.6-14.2-24.5c-4.4-1.2-14.4-3.2-21-4.4V112c0-11.1-9-20.1-20.1-20.1zM48 352H64c19.5 25.9 44 47.7 72.2 64H64v32H256 448V416H375.8c28.2-16.3 52.8-38.1 72.2-64h16c26.5 0 48 21.5 48 48v64c0 26.5-21.5 48-48 48H48c-26.5 0-48-21.5-48-48V400c0-26.5 21.5-48 48-48z"></path>
  </symbol>
  <symbol xmlns="http://www.w3.org/2000/svg" viewBox="0 0 640 512" id="hands-holding-child-solid">
    <path d="M320 0a40 40 0 1 1 0 80 40 40 0 1 1 0-80zm44.7 164.3L375.8 253c1.6 13.2-7.7 25.1-20.8 26.8s-25.1-7.7-26.8-20.8l-4.4-35h-7.6l-4.4 35c-1.6 13.2-13.6 22.5-26.8 20.8s-22.5-13.6-20.8-26.8l11.1-88.8L255.5 181c-10.1 8.6-25.3 7.3-33.8-2.8s-7.3-25.3 2.8-33.8l27.9-23.6C271.3 104.8 295.3 96 320 96s48.7 8.8 67.6 24.7l27.9 23.6c10.1 8.6 11.4 23.7 2.8 33.8s-23.7 11.4-33.8 2.8l-19.8-16.7zM40 64c22.1 0 40 17.9 40 40v40 80 40.2c0 17 6.7 33.3 18.7 45.3l51.1 51.1c8.3 8.3 21.3 9.6 31 3.1c12.9-8.6 14.7-26.9 3.7-37.8l-15.2-15.2-32-32c-12.5-12.5-12.5-32.8 0-45.3s32.8-12.5 45.3 0l32 32 15.2 15.2 0 0 25.3 25.3c21 21 32.8 49.5 32.8 79.2V464c0 26.5-21.5 48-48 48H173.3c-17 0-33.3-6.7-45.3-18.7L28.1 393.4C10.1 375.4 0 351 0 325.5V224 160 104C0 81.9 17.9 64 40 64zm560 0c22.1 0 40 17.9 40 40v56 64V325.5c0 25.5-10.1 49.9-28.1 67.9L512 493.3c-12 12-28.3 18.7-45.3 18.7H400c-26.5 0-48-21.5-48-48V385.1c0-29.7 11.8-58.2 32.8-79.2l25.3-25.3 0 0 15.2-15.2 32-32c12.5-12.5 32.8-12.5 45.3 0s12.5 32.8 0 45.3l-32 32-15.2 15.2c-11 11-9.2 29.2 3.7 37.8c9.7 6.5 22.7 5.2 31-3.1l51.1-51.1c12-12 18.7-28.3 18.7-45.3V224 144 104c0-22.1 17.9-40 40-40z"></path>
  </symbol>
  <symbol xmlns="http://www.w3.org/2000/svg" viewBox="0 0 576 512" id="hand-holding-dollar-solid">
    <path d="M312 24V34.5c6.4 1.2 12.6 2.7 18.2 4.2c12.8 3.4 20.4 16.6 17 29.4s-16.6 20.4-29.4 17c-10.9-2.9-21.1-4.9-30.2-5c-7.3-.1-14.7 1.7-19.4 4.4c-2.1 1.3-3.1 2.4-3.5 3c-.3 .5-.7 1.2-.7 2.8c0 .3 0 .5 0 .6c.2 .2 .9 1.2 3.3 2.6c5.8 3.5 14.4 6.2 27.4 10.1l.9 .3c11.1 3.3 25.9 7.8 37.9 15.3c13.7 8.6 26.1 22.9 26.4 44.9c.3 22.5-11.4 38.9-26.7 48.5c-6.7 4.1-13.9 7-21.3 8.8V232c0 13.3-10.7 24-24 24s-24-10.7-24-24V220.6c-9.5-2.3-18.2-5.3-25.6-7.8c-2.1-.7-4.1-1.4-6-2c-12.6-4.2-19.4-17.8-15.2-30.4s17.8-19.4 30.4-15.2c2.6 .9 5 1.7 7.3 2.5c13.6 4.6 23.4 7.9 33.9 8.3c8 .3 15.1-1.6 19.2-4.1c1.9-1.2 2.8-2.2 3.2-2.9c.4-.6 .9-1.8 .8-4.1l0-.2c0-1 0-2.1-4-4.6c-5.7-3.6-14.3-6.4-27.1-10.3l-1.9-.6c-10.8-3.2-25-7.5-36.4-14.4c-13.5-8.1-26.5-22-26.6-44.1c-.1-22.9 12.9-38.6 27.7-47.4c6.4-3.8 13.3-6.4 20.2-8.2V24c0-13.3 10.7-24 24-24s24 10.7 24 24zM568.2 336.3c13.1 17.8 9.3 42.8-8.5 55.9L433.1 485.5c-23.4 17.2-51.6 26.5-80.7 26.5H192 32c-17.7 0-32-14.3-32-32V416c0-17.7 14.3-32 32-32H68.8l44.9-36c22.7-18.2 50.9-28 80-28H272h16 64c17.7 0 32 14.3 32 32s-14.3 32-32 32H288 272c-8.8 0-16 7.2-16 16s7.2 16 16 16H392.6l119.7-88.2c17.8-13.1 42.8-9.3 55.9 8.5zM193.6 384l0 0-.9 0c.3 0 .6 0 .9 0z"></path>
  </symbol>
  <symbol xmlns="http://www.w3.org/2000/svg" viewBox="0 0 512 512" id="headphones-solid">
    <path d="M256 80C149.9 80 62.4 159.4 49.6 262c9.4-3.8 19.6-6 30.4-6c26.5 0 48 21.5 48 48V432c0 26.5-21.5 48-48 48c-44.2 0-80-35.8-80-80V384 336 288C0 146.6 114.6 32 256 32s256 114.6 256 256v48 48 16c0 44.2-35.8 80-80 80c-26.5 0-48-21.5-48-48V304c0-26.5 21.5-48 48-48c10.8 0 21 2.1 30.4 6C449.6 159.4 362.1 80 256 80z"></path>
  </symbol>
</svg>